<?xml version="1.0" encoding="utf-8"?>
<!-- Generator: Adobe Illustrator 26.1.0, SVG Export Plug-In . SVG Version: 6.00 Build 0)  -->
<svg version="1.1" id="katman_1" xmlns="http://www.w3.org/2000/svg" xmlns:xlink="http://www.w3.org/1999/xlink" x="0px" y="0px"
	 viewBox="85 280 455 240" style="enable-background:new 0 0 595.28 841.89;" xml:space="preserve">
<style type="text/css">
	.st0{fill-rule:evenodd;clip-rule:evenodd;fill:#FFFFFF;}
	.st1{fill:#FFFFFF;}
</style>
<path class="st0" d="M110.48,416.55c9.93,4.14,20.1,7.62,30.5,10.45c6.1,1.6,12.27,2.88,18.5,3.85c6.3,0.9,12.61,1.54,18.95,1.9
	c26.13,1.8,51.85-0.67,77.15-7.4c12.13-3.76,23.85-8.55,35.15-14.35c11.27-5.93,22.75-11.45,34.45-16.55
	c8.77-3.5,17.77-6.32,27-8.45c12.77-2.77,25.66-4.22,38.7-4.35c11.13-0.33,22.2,0.18,33.2,1.55c12.57,1.5,24.85,4.21,36.85,8.15
	c17.33,6.53,33.75,14.93,49.25,25.2c-8.77-3.73-17.59-7.38-26.45-10.95c-11.2-4.4-22.72-7.75-34.55-10.05
	c-8.34-1.5-16.73-2.46-25.2-2.9c-4.47-0.3-8.93-0.43-13.4-0.4c-2.93,0.07-5.77,0.08-8.5,0.05c-12.27,0.37-24.47,1.57-36.6,3.6
	c-12.5,2.27-24.62,5.88-36.35,10.85c-11.83,5.33-23.54,10.98-35.1,16.95c-11.57,5.73-23.58,10.23-36.05,13.5
	c-12.64,3.16-25.45,4.97-38.45,5.4c-5.57,0.2-11.13,0.24-16.7,0.1c-2.24-0.07-4.43-0.18-6.6-0.35c-3.27-0.13-6.5-0.35-9.7-0.65
	c-6.33-0.63-12.61-1.55-18.85-2.75c-3.2-0.5-6.35-1.15-9.45-1.95c-2.97-0.87-5.93-1.72-8.9-2.55c-5.74-1.7-11.3-3.8-16.7-6.3
	c-5.37-2.33-10.6-4.95-15.7-7.85C114.76,419.07,112.61,417.82,110.48,416.55"/>
<path class="st0" d="M280.38,407.2c-5.77,2.23-11.67,2.72-17.7,1.45c-6.23-2.17-11.25-6.05-15.05-11.65
	c-4.4-5.57-7.53-11.79-9.4-18.65c-1.7-6.96-1.67-13.91,0.1-20.85c3.84-16.67,12.52-30.17,26.05-40.5c0.77-0.5,1.54-0.98,2.3-1.45
	c-10.67-0.43-21.01,1.23-31.05,5c-10.07,3.77-19.43,8.67-28.1,14.7c-9.63,6.66-18.4,14.32-26.3,22.95
	c-8,8.66-14.77,18.21-20.3,28.65c-3.07,5.67-5.57,11.57-7.5,17.7c-1.17,3.67-3.42,5.87-6.75,6.6c-3.34,0.7-6.68,0.68-10.05-0.05
	c-3.17-0.63-6.25-1.58-9.25-2.85c6.37,3.96,13.18,5.52,20.45,4.65c3.3-0.8,5.75-2.7,7.35-5.7c1.16-2.6,2.28-5.22,3.35-7.85
	c5.67-11.7,12.84-22.4,21.5-32.1c11.7-13.47,25.45-24.3,41.25-32.5c5.3-2.84,10.85-4.95,16.65-6.35c1.83-0.46,3.71-0.71,5.65-0.75
	c-2.73,4.4-4.87,9.07-6.4,14c-1.34,4-2.48,8.04-3.45,12.1c-0.77,3.07-1.3,6.16-1.6,9.3c-0.46,7.27,0.7,14.29,3.5,21.05
	c3.63,8.63,9.12,15.87,16.45,21.7c-0.03-0.03-0.08-0.07-0.15-0.1c5.33,4.27,11.4,5.91,18.2,4.95c4.27-0.67,8.29-2.05,12.05-4.15
	C281.58,406.73,280.98,406.96,280.38,407.2"/>
<path class="st0" d="M229.63,339.7c-0.43,1.63-0.92,3.27-1.45,4.9c-0.73,2.43-1.38,4.9-1.95,7.4c-1.2,5.16-1.85,10.41-1.95,15.75
	c-0.03,2.6,0.1,5.18,0.4,7.75c0.33,2.57,0.77,5.1,1.3,7.6c1.07,4.23,2.3,8.42,3.7,12.55c-2.97-3.46-5.29-7.33-6.95-11.6
	c-2.14-5.27-3.14-10.71-3-16.35c0.1-5.5,1.11-10.82,3.05-15.95C224.51,347.41,226.79,343.4,229.63,339.7"/>
<path class="st1" d="M254.66,481.37c0,3.03,0.62,5.37,1.88,7.02c1.26,1.64,3.09,2.45,5.5,2.45c1.91,0,3.43-0.38,4.58-1.14
	c1.14-0.77,1.92-1.74,2.33-2.91l3.86,1.09c-1.57,4.17-5.16,6.25-10.76,6.25c-3.91,0-6.88-1.16-8.92-3.48
	c-2.04-2.33-3.06-5.79-3.06-10.38c0-4.36,1.02-7.71,3.06-10.03c2.04-2.33,4.96-3.5,8.75-3.5c7.77,0,11.66,4.68,11.66,14.05v0.58
	H254.66z M268.97,477.99c-0.25-2.78-0.96-4.8-2.14-6.08c-1.17-1.28-2.84-1.92-5.03-1.92c-2.14,0-3.83,0.72-5.08,2.14
	c-1.24,1.42-1.91,3.37-2.02,5.86H268.97z M289.13,504.02c-2.88,0-5.17-0.57-6.88-1.7c-1.71-1.12-2.81-2.73-3.3-4.81l4.42-0.64
	c0.29,1.22,0.94,2.16,1.94,2.81c1,0.66,2.31,1,3.94,1c4.38,0,6.56-2.56,6.56-7.69v-4.25h-0.05c-0.82,1.69-1.97,2.97-3.42,3.83
	c-1.45,0.85-3.14,1.28-5.06,1.28c-3.24,0-5.62-1.07-7.16-3.22c-1.52-2.16-2.28-5.53-2.28-10.14c0-4.68,0.82-8.12,2.45-10.34
	c1.63-2.22,4.12-3.33,7.47-3.33c1.86,0,3.48,0.43,4.86,1.28c1.38,0.86,2.45,2.07,3.19,3.64h0.06c0-0.48,0.03-1.32,0.09-2.53
	c0.06-1.21,0.13-1.87,0.19-1.98h4.17c-0.09,0.89-0.14,2.71-0.14,5.47v20.2C300.2,500.31,296.51,504.02,289.13,504.02L289.13,504.02z
	 M295.82,480.45c0-2.16-0.29-4.01-0.87-5.56c-0.59-1.55-1.41-2.74-2.49-3.56c-1.06-0.82-2.27-1.23-3.61-1.23
	c-2.25,0-3.89,0.82-4.92,2.45c-1.02,1.62-1.53,4.26-1.53,7.91c0,3.62,0.48,6.22,1.44,7.8c0.96,1.57,2.6,2.36,4.94,2.36
	c1.38,0,2.61-0.41,3.69-1.22c1.07-0.82,1.9-1.99,2.49-3.51C295.53,484.35,295.82,482.54,295.82,480.45L295.82,480.45z
	 M295.82,480.45"/>
<path class="st1" d="M310.33,481.37c0,3.03,0.62,5.37,1.88,7.02c1.26,1.64,3.09,2.45,5.5,2.45c1.91,0,3.43-0.38,4.58-1.14
	c1.14-0.77,1.92-1.74,2.33-2.91l3.86,1.09c-1.57,4.17-5.16,6.25-10.76,6.25c-3.91,0-6.88-1.16-8.92-3.48
	c-2.04-2.33-3.06-5.79-3.06-10.38c0-4.36,1.02-7.71,3.06-10.03c2.04-2.33,4.96-3.5,8.75-3.5c7.77,0,11.66,4.68,11.66,14.05v0.58
	H310.33z M324.64,477.99c-0.25-2.78-0.96-4.8-2.14-6.08c-1.17-1.28-2.84-1.92-5.03-1.92c-2.14,0-3.83,0.72-5.08,2.14
	c-1.24,1.42-1.91,3.37-2.01,5.86H324.64z M324.64,477.99"/>
<path class="st1" d="M340.24,470.43v23.22h-4.39v-23.22h-3.72v-3.2h3.72v-2.97c0-2.41,0.52-4.15,1.58-5.2
	c1.06-1.06,2.68-1.59,4.86-1.59c1.23,0,2.27,0.1,3.11,0.3v3.34c-0.74-0.12-1.39-0.19-1.95-0.19c-1.12,0-1.94,0.29-2.45,0.86
	c-0.5,0.56-0.75,1.59-0.75,3.09v2.36h5.16v3.2H340.24z M340.24,470.43"/>
<path class="st1" d="M352.02,481.37c0,3.03,0.62,5.37,1.88,7.02c1.26,1.64,3.09,2.45,5.5,2.45c1.91,0,3.43-0.38,4.58-1.14
	c1.14-0.77,1.92-1.74,2.33-2.91l3.86,1.09c-1.57,4.17-5.16,6.25-10.77,6.25c-3.91,0-6.88-1.16-8.92-3.48
	c-2.04-2.33-3.06-5.79-3.06-10.38c0-4.36,1.02-7.71,3.06-10.03c2.04-2.33,4.96-3.5,8.75-3.5c7.77,0,11.66,4.68,11.66,14.05v0.58
	H352.02z M366.34,477.99c-0.25-2.78-0.96-4.8-2.14-6.08c-1.17-1.28-2.84-1.92-5.03-1.92c-2.14,0-3.83,0.72-5.08,2.14
	c-1.24,1.42-1.91,3.37-2.02,5.86H366.34z M366.34,477.99"/>
</svg>
